<?xml version="1.0" encoding="UTF-8" standalone="no"?><!DOCTYPE svg PUBLIC "-//W3C//DTD SVG 1.1//EN" "http://www.w3.org/Graphics/SVG/1.1/DTD/svg11.dtd"><svg width="100%" height="100%" viewBox="0 0 1280 800" version="1.1" xmlns="http://www.w3.org/2000/svg" xmlns:xlink="http://www.w3.org/1999/xlink" xml:space="preserve" style="fill-rule:evenodd;clip-rule:evenodd;stroke-linecap:round;stroke-linejoin:round;stroke-miterlimit:1.5;"><rect id="yellow-fish-in-blue-water" x="0" y="0" width="1280" height="800" style="fill:none;"/><clipPath id="_clip1"><rect x="0" y="0" width="1280" height="800"/></clipPath><g clip-path="url(#_clip1)"><rect x="0" y="0" width="1280" height="800" style="fill:#74d1ea;"/><g><path d="M530,841c0,0 -2.218,-39.645 -6.44,-93.755c-1.831,-23.458 -2.185,-48.682 -9.603,-81.664c-8.089,-35.971 -10.207,-121.037 -10.761,-153.074c-0.187,-10.801 10.761,-17.507 10.761,-17.507c-11.441,-9.657 -20.722,138.023 -10.957,183.619c12.623,58.944 27,162.381 27,162.381Z" style="fill:#44d62c;stroke:#9d9994;stroke-opacity:0.105882;stroke-width:0.05px;"/><path d="M419,495c0,0 -77.68,67.868 -89,115c-12.333,51.351 23.599,215.762 15,193.103c-76.777,-202.319 74,-308.103 74,-308.103Z" style="fill:#44d62c;stroke:#9d9994;stroke-opacity:0.129412;stroke-width:0.05px;"/><path d="M446.897,529c0,0 -18.97,48.431 -23.584,94.505c-3.704,36.985 -2.187,47.274 -4.63,70.766c-3.591,34.523 3.676,152.119 0,131.968c-32.821,-179.924 28.214,-297.239 28.214,-297.239Z" style="fill:#44d62c;stroke:#9d9994;stroke-opacity:0.129412;stroke-width:0.1px;"/><path d="M375.23,841c0,0 -1.64,-30.44 -4.761,-71.985c-1.354,-18.011 -1.616,-37.378 -7.1,-62.702c-5.981,-27.619 -7.547,-92.932 -7.957,-117.53c-0.138,-8.293 7.957,-13.442 7.957,-13.442c-8.459,-7.415 -15.321,105.974 -8.101,140.983c9.333,45.257 19.962,124.676 19.962,124.676Z" style="fill:#44d62c;stroke:#9d9994;stroke-opacity:0.105882;stroke-width:0.05px;"/><path d="M463.353,574.994c2.913,-22.217 -65.187,89.968 -68.747,122.129c-4.22,38.125 20.394,131.83 14.036,114.432c-56.764,-155.34 54.711,-236.561 54.711,-236.561Z" style="fill:#44d62c;stroke:#9d9994;stroke-opacity:0.129412;stroke-width:0.05px;"/><path d="M522.617,598.554c0,0 -14.025,37.186 -17.437,72.561c-2.738,28.397 -1.616,36.297 -3.423,54.334c-2.655,26.507 2.718,116.798 0,101.326c-24.266,-138.146 20.86,-228.221 20.86,-228.221Z" style="fill:#44d62c;stroke:#9d9994;stroke-opacity:0.129412;stroke-width:0.1px;"/></g><g><path d="M452.215,434.901c133.588,-12.505 -270.385,-108.07 0,-48c270.385,60.07 443.599,105.055 470,0c26.401,-105.055 -470,48 -470,48Z" style="fill:#f2f0a1;stroke:#9d9994;stroke-opacity:0.219608;stroke-width:1px;"/><circle cx="873.215" cy="383" r="8" style="fill:#9e978e;"/></g><g><circle cx="895.215" cy="219" r="8" style="fill:#cff;"/><circle cx="923.232" cy="267" r="8" style="fill:#cff;"/><circle cx="923.232" cy="127" r="8" style="fill:#cff;"/></g></g></svg>