<?xml version="1.0" encoding="UTF-8" standalone="no"?><!DOCTYPE svg PUBLIC "-//W3C//DTD SVG 1.1//EN" "http://www.w3.org/Graphics/SVG/1.1/DTD/svg11.dtd"><svg width="100%" height="100%" viewBox="0 0 1280 800" version="1.1" xmlns="http://www.w3.org/2000/svg" xmlns:xlink="http://www.w3.org/1999/xlink" xml:space="preserve" style="fill-rule:evenodd;clip-rule:evenodd;stroke-linecap:round;stroke-linejoin:round;stroke-miterlimit:1.5;"><rect id="beach-and-ship" x="0" y="0" width="1280" height="800" style="fill:none;"/><clipPath id="_clip1"><rect x="0" y="0" width="1280" height="800"/></clipPath><g clip-path="url(#_clip1)"><rect x="0" y="310" width="1280" height="490" style="fill:#00bce3;"/><g><path d="M707.047,418.005l-439.468,204.936l-894.589,30.383l1334.06,-235.319Z" style="fill:#fff;fill-opacity:0.151733;"/><path d="M707.047,418.005l-965.994,273.99l-328.949,-150.494l1294.94,-123.496Z" style="fill:#fff;fill-opacity:0.151733;"/></g><path d="M683.703,424.626l-683.703,-67.32l0,37.434l567.5,29.886l116.203,0Z" style="fill:url(#_Linear2);"/><path d="M683.703,428.891l-683.703,-57.691l0,46.805l514.113,14.168l169.59,-3.282Z" style="fill:url(#_Linear3);"/><path d="M1280,624.565c0,0 -137.197,-24.876 -271.376,-25.772c-176.37,-1.178 -274.3,22.15 -560.848,25.772c-138.163,1.747 -447.776,-25.772 -447.776,-25.772l0,201.207l1280,0l0,-175.435Z" style="fill:#fff36d;"/><rect x="0" y="0" width="1280" height="310" style="fill:#cff;"/><g><path d="M574.062,280.057l3.667,124.441c0,0 103.726,-67.746 103.115,-88.486c-0.612,-20.74 -106.782,-35.955 -106.782,-35.955Z" style="fill:#ecffff;stroke:#9d9994;stroke-opacity:0.25098;stroke-width:1px;"/><path d="M473.546,407.568l277.822,-8.188c0,0 -50.399,29.002 -67.198,29.497c-89.915,2.65 -109.074,3.215 -192.45,5.672c-16.798,0.495 -18.174,-26.981 -18.174,-26.981Z" style="fill:#ecffff;stroke:#9d9994;stroke-opacity:0.266667;stroke-width:1px;"/></g><circle cx="793.5" cy="122.5" r="32.5" style="fill:#fff36d;"/></g><defs><linearGradient id="_Linear2" x1="0" y1="0" x2="1" y2="0" gradientUnits="userSpaceOnUse" gradientTransform="matrix(1308.06,0,0,-124.362,-654.028,372.181)"><stop offset="0%" style="stop-color:#fff;stop-opacity:0"/><stop offset="100%" style="stop-color:#fff;stop-opacity:0.151733"/></linearGradient><linearGradient id="_Linear3" x1="0" y1="0" x2="1" y2="0" gradientUnits="userSpaceOnUse" gradientTransform="matrix(1269.7,0,0,-144.799,-615.677,361.963)"><stop offset="0%" style="stop-color:#fff;stop-opacity:0"/><stop offset="100%" style="stop-color:#fff;stop-opacity:0.151733"/></linearGradient></defs></svg>